<svg width="34" height="34" viewBox="0 0 34 34" fill="none" xmlns="http://www.w3.org/2000/svg">
<path d="M17 30.2C20.5009 30.2 23.8583 28.8093 26.3338 26.3338C28.8093 23.8583 30.2 20.5009 30.2 17C30.2 13.4991 28.8093 10.1417 26.3338 7.66619C23.8583 5.19071 20.5009 3.8 17 3.8C13.4991 3.8 10.1417 5.19071 7.66619 7.66619C5.19071 10.1417 3.8 13.4991 3.8 17C3.8 20.5009 5.19071 23.8583 7.66619 26.3338C10.1417 28.8093 13.4991 30.2 17 30.2ZM17 0.5C19.1668 0.5 21.3124 0.926785 23.3143 1.75599C25.3161 2.58519 27.1351 3.80057 28.6673 5.33274C30.1994 6.8649 31.4148 8.68385 32.244 10.6857C33.0732 12.6876 33.5 14.8332 33.5 17C33.5 21.3761 31.7616 25.5729 28.6673 28.6673C25.5729 31.7616 21.3761 33.5 17 33.5C7.8755 33.5 0.5 26.075 0.5 17C0.5 12.6239 2.23839 8.42709 5.33274 5.33274C8.42709 2.23839 12.6239 0.5 17 0.5ZM17.825 8.75V17.4125L25.25 21.818L24.0125 23.8475L15.35 18.65V8.75H17.825Z" fill="#3281A2"/>
</svg>
