<svg width="7" height="14" viewBox="0 0 7 14" fill="none" xmlns="http://www.w3.org/2000/svg">
<path d="M3.2071 13.6633C3.00247 13.6633 2.83083 13.594 2.69216 13.4553C2.55349 13.3167 2.4844 13.1453 2.48488 12.9411V12.1105C1.94321 11.9902 1.46775 11.7795 1.05849 11.4786C0.649234 11.1777 0.318216 10.7564 0.065438 10.2147C-0.0188212 10.0462 -0.0217101 9.86853 0.0567713 9.68172C0.135253 9.4949 0.276567 9.35961 0.480716 9.27583C0.649234 9.20361 0.823771 9.20674 1.00433 9.28522C1.18488 9.3637 1.32331 9.49298 1.4196 9.67305C1.62423 10.0342 1.88303 10.3079 2.19599 10.4942C2.50896 10.6806 2.89414 10.774 3.35155 10.7744C3.84507 10.7744 4.26323 10.663 4.60605 10.4401C4.94886 10.2171 5.12051 9.87118 5.12099 9.40222C5.12099 8.98092 4.98858 8.64701 4.72377 8.4005C4.45895 8.15398 3.84507 7.874 2.8821 7.56055C1.84692 7.23555 1.13673 6.84724 0.751549 6.39561C0.366364 5.94398 0.173771 5.3934 0.173771 4.74389C0.173771 3.96148 0.426549 3.35361 0.932104 2.92028C1.43766 2.48694 1.95525 2.24018 2.48488 2.18V1.38555C2.48488 1.18092 2.55421 1.00928 2.69288 0.87061C2.83155 0.731944 3.00271 0.662851 3.20638 0.663333C3.41101 0.663333 3.58266 0.732666 3.72133 0.871333C3.85999 1.01 3.92908 1.18141 3.9286 1.38555V2.18C4.38601 2.25222 4.78323 2.39979 5.12027 2.62272C5.45731 2.84565 5.73416 3.11937 5.95082 3.44389C6.05916 3.60037 6.08034 3.7749 6.01438 3.9675C5.94842 4.16009 5.81288 4.29852 5.60777 4.38278C5.43925 4.455 5.26471 4.45813 5.08416 4.39216C4.9036 4.3262 4.73508 4.20872 4.5786 4.03972C4.42212 3.8712 4.23844 3.74192 4.02755 3.65189C3.81666 3.56185 3.55497 3.51659 3.24249 3.51611C2.71286 3.51611 2.30962 3.63359 2.03277 3.86855C1.75592 4.10352 1.61773 4.39529 1.61821 4.74389C1.61821 5.14111 1.79877 5.45407 2.15988 5.68277C2.52099 5.91148 3.14692 6.15222 4.03766 6.405C4.86821 6.64574 5.49727 7.02803 5.92482 7.55189C6.35238 8.07574 6.56592 8.68048 6.56543 9.36611C6.56543 10.2207 6.31266 10.8707 5.8071 11.3161C5.30155 11.7615 4.67562 12.0383 3.92932 12.1467V12.9411C3.92932 13.1457 3.85999 13.3174 3.72133 13.456C3.58266 13.5947 3.41125 13.6638 3.2071 13.6633Z" fill="#01BFE8"/>
</svg>
