<svg width="19" height="19" viewBox="0 0 19 19"  xmlns="http://www.w3.org/2000/svg">
<path fill-rule="evenodd" clip-rule="evenodd" d="M9.5 0C4.25543 0 0 4.25543 0 9.5C0 14.7446 4.25543 19 9.5 19C14.7343 19 19 14.7446 19 9.5C19 4.25543 14.7343 0 9.5 0ZM15.7749 4.37906C16.9083 5.75976 17.5884 7.5217 17.609 9.42788C17.3411 9.37635 14.6621 8.83027 11.9626 9.17027C11.9008 9.03634 11.8492 8.89208 11.7874 8.74783C11.6226 8.35629 11.4371 7.95445 11.2516 7.57321C14.2397 6.35738 15.5998 4.60575 15.7749 4.37906ZM9.5 1.4013C11.5607 1.4013 13.4463 2.17408 14.8785 3.44143C14.7343 3.64751 13.5081 5.2858 10.6231 6.36768C9.29393 3.9257 7.82049 1.92679 7.59382 1.61768C8.20173 1.47343 8.84057 1.4013 9.5 1.4013ZM6.04827 2.16378C6.26464 2.45227 7.70716 4.4615 9.05694 6.85195C5.26518 7.86171 1.91649 7.84111 1.55586 7.84111C2.08134 5.32701 3.78146 3.23536 6.04827 2.16378ZM1.38069 9.5103C1.38069 9.42788 1.38069 9.34545 1.38069 9.26301C1.73102 9.27331 5.66704 9.32484 9.71637 8.10901C9.95336 8.56237 10.1697 9.02603 10.3758 9.4897C10.2728 9.52062 10.1594 9.55153 10.0564 9.58242C5.87311 10.9322 3.64751 14.6209 3.46205 14.93C2.17407 13.4978 1.38069 11.5917 1.38069 9.5103ZM9.5 17.6193C7.62474 17.6193 5.89371 16.9805 4.52331 15.9089C4.66758 15.6101 6.31617 12.4365 10.891 10.8395C10.9116 10.8292 10.9219 10.8292 10.9425 10.8189C12.0862 13.776 12.5499 16.2592 12.6735 16.9702C11.6947 17.3926 10.6231 17.6193 9.5 17.6193ZM14.0233 16.2283C13.9409 15.7337 13.5081 13.3639 12.4469 10.4479C14.9919 10.0461 17.2175 10.7055 17.4957 10.7983C17.1453 13.0548 15.8471 15.0022 14.0233 16.2283Z" />
</svg>
