<svg width="19" height="19" viewBox="0 0 19 19" xmlns="http://www.w3.org/2000/svg">
<path d="M9.50008 0C4.25402 0 0 4.18644 0 9.35089C0 13.4824 2.72206 16.9875 6.49673 18.2239C6.97152 18.3105 7.14582 18.0211 7.14582 17.7741C7.14582 17.5511 7.13701 16.8145 7.13292 16.0332C4.48999 16.5988 3.9323 14.9299 3.9323 14.9299C3.50015 13.849 2.87749 13.5616 2.87749 13.5616C2.01555 12.9813 2.94246 12.9932 2.94246 12.9932C3.89644 13.0592 4.39875 13.9568 4.39875 13.9568C5.24606 15.3864 6.62117 14.9731 7.16329 14.7341C7.24855 14.1298 7.49475 13.7173 7.76644 13.4838C5.65634 13.2473 3.43817 12.4455 3.43817 8.86251C3.43817 7.8416 3.80928 7.00744 4.417 6.35259C4.31836 6.11707 3.99319 5.166 4.50903 3.87799C4.50903 3.87799 5.30679 3.62667 7.12223 4.83649C7.88002 4.6293 8.69273 4.5254 9.50008 4.52184C10.3074 4.5254 11.1208 4.6293 11.88 4.83649C13.6932 3.62667 14.4899 3.87799 14.4899 3.87799C15.007 5.166 14.6816 6.11707 14.583 6.35259C15.1921 7.00744 15.5607 7.8416 15.5607 8.86251C15.5607 12.454 13.3383 13.2448 11.2229 13.4763C11.5636 13.7665 11.8672 14.3356 11.8672 15.208C11.8672 16.4591 11.8562 17.4661 11.8562 17.7741C11.8562 18.0229 12.0272 18.3145 12.5088 18.2227C16.2814 16.9848 19 13.481 19 9.35089C19 4.18644 14.7466 0 9.50008 0ZM3.55809 13.3205C3.53717 13.367 3.46291 13.3809 3.39526 13.349C3.32636 13.3185 3.28766 13.2552 3.31 13.2086C3.33045 13.1607 3.40486 13.1474 3.47361 13.1795C3.54267 13.21 3.582 13.2739 3.55809 13.3205ZM4.02539 13.731C3.98008 13.7723 3.89151 13.7531 3.83141 13.6878C3.76927 13.6226 3.75763 13.5354 3.80357 13.4934C3.85029 13.4521 3.93619 13.4714 3.99849 13.5366C4.06063 13.6026 4.07274 13.6892 4.02539 13.731ZM4.34597 14.2561C4.28776 14.2959 4.19259 14.2586 4.13375 14.1754C4.07554 14.0922 4.07554 13.9925 4.13501 13.9526C4.194 13.9126 4.28776 13.9485 4.34739 14.0311C4.40544 14.1156 4.40544 14.2153 4.34597 14.2561ZM4.88815 14.8642C4.83608 14.9207 4.72517 14.9056 4.64399 14.8285C4.56093 14.7531 4.5378 14.6461 4.59003 14.5895C4.64273 14.5329 4.75427 14.5488 4.83608 14.6253C4.91851 14.7006 4.94368 14.8083 4.88815 14.8642ZM5.58886 15.0695C5.56589 15.1428 5.45907 15.1761 5.35147 15.1449C5.24402 15.1129 5.1737 15.0271 5.19541 14.9531C5.21775 14.8794 5.32504 14.8447 5.43343 14.878C5.54072 14.9099 5.6112 14.9951 5.58886 15.0695ZM6.3863 15.1566C6.38897 15.2337 6.29773 15.2977 6.18477 15.2991C6.07119 15.3016 5.97932 15.2392 5.97806 15.1633C5.97806 15.0854 6.06726 15.0221 6.18084 15.0202C6.29379 15.018 6.3863 15.08 6.3863 15.1566ZM7.16969 15.1271C7.18322 15.2023 7.10472 15.2796 6.99255 15.3002C6.88227 15.32 6.78017 15.2735 6.76617 15.1989C6.75249 15.1218 6.8324 15.0445 6.94252 15.0246C7.05485 15.0054 7.15537 15.0506 7.16969 15.1271Z" />
</svg>
