<svg width="19" height="19" viewBox="0 0 19 19" xmlns="http://www.w3.org/2000/svg">
<path d="M16.1889 16.0293H13.3737V11.664C13.3737 10.623 13.3549 9.28301 11.9095 9.28301C10.4432 9.28301 10.2189 10.4172 10.2189 11.5882V16.029H7.40369V7.05215H10.1063V8.27894H10.1441C10.4146 7.82105 10.8054 7.44437 11.275 7.18901C11.7446 6.93366 12.2753 6.80919 12.8107 6.82887C15.664 6.82887 16.1901 8.68719 16.1901 11.1047L16.1889 16.0293ZM4.2272 5.82508C3.90409 5.82514 3.5882 5.73033 3.31951 5.55263C3.05082 5.37493 2.84139 5.12233 2.71769 4.82677C2.59398 4.53122 2.56156 4.20598 2.62454 3.89218C2.68752 3.57838 2.84307 3.29012 3.07151 3.06386C3.29994 2.83759 3.59102 2.68347 3.90791 2.621C4.22481 2.55853 4.55329 2.59051 4.85183 2.71289C5.15037 2.83527 5.40556 3.04255 5.58512 3.30854C5.76468 3.57452 5.86055 3.88725 5.86061 4.20718C5.86065 4.41961 5.81843 4.62997 5.73636 4.82624C5.6543 5.02251 5.534 5.20085 5.38233 5.35109C5.23065 5.50133 5.05056 5.62051 4.85237 5.70184C4.65417 5.78317 4.44174 5.82505 4.2272 5.82508ZM5.6348 16.0293H2.81667V7.05215H5.6348V16.0293ZM17.5924 0.00128171H1.40203C1.03456 -0.00282441 0.680452 0.137693 0.417557 0.391955C0.154662 0.646217 0.00448484 0.993422 0 1.35727V17.4547C0.00433134 17.8187 0.15442 18.1662 0.417306 18.4207C0.680192 18.6752 1.03438 18.816 1.40203 18.8121H17.5924C17.9608 18.8167 18.316 18.6763 18.5799 18.4218C18.8438 18.1673 18.9949 17.8194 19 17.4547V1.35611C18.9947 0.991539 18.8435 0.643939 18.5796 0.389683C18.3157 0.135427 17.9606 -0.0046885 17.5924 0.000119788" />
</svg>
