<svg width="11" height="14" viewBox="0 0 11 14" fill="none" xmlns="http://www.w3.org/2000/svg">
<path d="M5.5 6.78753C5.87813 6.78753 6.20194 6.6577 6.47144 6.39803C6.74094 6.13836 6.87546 5.82658 6.875 5.46269C6.875 5.09836 6.74025 4.78636 6.47075 4.52669C6.20125 4.26702 5.87767 4.13741 5.5 4.13785C5.12187 4.13785 4.79806 4.26769 4.52856 4.52736C4.25906 4.78702 4.12454 5.0988 4.125 5.46269C4.125 5.82702 4.25975 6.13902 4.52925 6.39869C4.79875 6.65836 5.12233 6.78798 5.5 6.78753ZM5.5 11.6563C6.89792 10.4198 7.9349 9.29634 8.61094 8.28593C9.28698 7.27552 9.625 6.3786 9.625 5.59518C9.625 4.39178 9.22671 3.40654 8.43012 2.63946C7.63354 1.87237 6.65683 1.48861 5.5 1.48817C4.34271 1.48817 3.36577 1.87193 2.56919 2.63946C1.7726 3.40698 1.37454 4.39222 1.375 5.59518C1.375 6.37904 1.71302 7.27618 2.38906 8.28659C3.0651 9.297 4.10208 10.4202 5.5 11.6563ZM5.5 13.1633C5.40833 13.1633 5.31667 13.1468 5.225 13.1136C5.13333 13.0805 5.05312 13.0364 4.98438 12.9812C3.31146 11.557 2.0625 10.2348 1.2375 9.01459C0.4125 7.79441 0 6.65461 0 5.59518C0 3.93913 0.552979 2.61981 1.65894 1.63722C2.7649 0.654625 4.04525 0.16333 5.5 0.16333C6.95521 0.16333 8.23579 0.654625 9.34175 1.63722C10.4477 2.61981 11.0005 3.93913 11 5.59518C11 6.65505 10.5875 7.79508 9.7625 9.01525C8.9375 10.2354 7.68854 11.5574 6.01562 12.9812C5.94688 13.0364 5.86667 13.0805 5.775 13.1136C5.68333 13.1468 5.59167 13.1633 5.5 13.1633Z" fill="#01BFE8"/>
</svg>
