<svg width="43" height="58" viewBox="0 0 43 58" fill="none" xmlns="http://www.w3.org/2000/svg">
<path d="M21.3684 0C23.7972 0 26.1266 0.964847 27.844 2.68229C29.5615 4.39972 30.5263 6.72907 30.5263 9.15789V27.4737C30.5263 29.9025 29.5615 32.2319 27.844 33.9493C26.1266 35.6667 23.7972 36.6316 21.3684 36.6316C18.9396 36.6316 16.6102 35.6667 14.8928 33.9493C13.1754 32.2319 12.2105 29.9025 12.2105 27.4737V9.15789C12.2105 6.72907 13.1754 4.39972 14.8928 2.68229C16.6102 0.964847 18.9396 0 21.3684 0ZM42.7368 27.4737C42.7368 38.2495 34.7695 47.1326 24.4211 48.6284V58H18.3158V48.6284C7.96737 47.1326 0 38.2495 0 27.4737H6.10526C6.10526 31.5217 7.71334 35.404 10.5757 38.2664C13.4381 41.1288 17.3204 42.7368 21.3684 42.7368C25.4165 42.7368 29.2987 41.1288 32.1611 38.2664C35.0235 35.404 36.6316 31.5217 36.6316 27.4737H42.7368Z" fill="#EAEAEA"/>
</svg>
