<svg width="96" height="58" viewBox="0 0 96 58" fill="none" xmlns="http://www.w3.org/2000/svg">
<path d="M48 0C51.713 0 55.274 1.475 57.8995 4.10051C60.525 6.72602 62 10.287 62 14C62 17.713 60.525 21.274 57.8995 23.8995C55.274 26.525 51.713 28 48 28C44.287 28 40.726 26.525 38.1005 23.8995C35.475 21.274 34 17.713 34 14C34 10.287 35.475 6.72602 38.1005 4.10051C40.726 1.475 44.287 0 48 0ZM20 10C22.24 10 24.32 10.6 26.12 11.68C25.52 17.4 27.2 23.08 30.64 27.52C28.64 31.36 24.64 34 20 34C16.8174 34 13.7652 32.7357 11.5147 30.4853C9.26428 28.2348 8 25.1826 8 22C8 18.8174 9.26428 15.7652 11.5147 13.5147C13.7652 11.2643 16.8174 10 20 10ZM76 10C79.1826 10 82.2348 11.2643 84.4853 13.5147C86.7357 15.7652 88 18.8174 88 22C88 25.1826 86.7357 28.2348 84.4853 30.4853C82.2348 32.7357 79.1826 34 76 34C71.36 34 67.36 31.36 65.36 27.52C68.8475 23.0177 70.4663 17.3448 69.88 11.68C71.68 10.6 73.76 10 76 10ZM22 51C22 42.72 33.64 36 48 36C62.36 36 74 42.72 74 51V58H22V51ZM0 58V52C0 46.44 7.56 41.76 17.8 40.4C15.44 43.12 14 46.88 14 51V58H0ZM96 58H82V51C82 46.88 80.56 43.12 78.2 40.4C88.44 41.76 96 46.44 96 52V58Z" fill="#EAEAEA"/>
</svg>
