<svg width="19" height="16" viewBox="0 0 19 16" xmlns="http://www.w3.org/2000/svg">
<path d="M17.0548 3.85088C17.0664 4.01871 17.0664 4.18653 17.0664 4.3559C17.0664 9.5167 13.1452 15.4687 5.97518 15.4687V15.4656C3.85712 15.4687 1.78306 14.8608 0 13.7146C0.307983 13.7517 0.61751 13.7703 0.927808 13.7711C2.68308 13.7726 4.38818 13.1825 5.76908 12.0959C4.10104 12.0642 2.63831 10.9745 2.12732 9.38367C2.71164 9.49659 3.31371 9.47339 3.88722 9.31639C2.06866 8.94826 0.760309 7.34735 0.760309 5.48814C0.760309 5.47112 0.760309 5.45488 0.760309 5.43864C1.30217 5.74103 1.90888 5.90886 2.52947 5.92742C0.816656 4.78049 0.288686 2.49746 1.32301 0.71249C3.30213 3.15252 6.22218 4.63587 9.35682 4.79286C9.04266 3.43635 9.47183 2.01487 10.4845 1.06129C12.0546 -0.417424 14.5238 -0.341633 15.9997 1.23066C16.8727 1.05819 17.7094 0.737238 18.4751 0.282488C18.1841 1.18657 17.5751 1.95454 16.7615 2.44255C17.5342 2.35129 18.2891 2.14402 19 1.82771C18.4767 2.61347 17.8175 3.29791 17.0548 3.85088Z" />
</svg>
